<svg width="64" height="64" viewBox="0 0 64 64" fill="none" xmlns="http://www.w3.org/2000/svg">
<path d="M43.0195 34.5L12 52.5244V16.4756L43.0195 34.5Z" stroke="#3374F5" stroke-width="4"/>
<path d="M33.0011 19.4989C35.9091 19.3896 38.7849 18.2249 41.0049 16.0049C43.2249 13.7849 44.3896 10.9091 44.4989 8.0011L44.5 8L44.5011 8.0011C44.6104 10.9091 45.7751 13.7849 47.9951 16.0049C50.2151 18.2249 53.0908 19.3894 55.9988 19.4988L56 19.5L55.9989 19.5011C53.0909 19.6104 50.2151 20.7751 47.9951 22.9951C45.7751 25.2151 44.6104 28.0909 44.5011 30.9989L44.5 31L44.4988 30.9988C44.3894 28.0908 43.2249 25.2151 41.0049 22.9951C38.7849 20.7751 35.9091 19.6104 33.0011 19.5011L33 19.5L33.0011 19.4989Z" fill="#3374F5"/>
</svg>
