<svg width="64" height="64" viewBox="0 0 64 64" fill="none" xmlns="http://www.w3.org/2000/svg">
<path d="M39.5 12H11C9.89543 12 9 12.8954 9 14V54C9 55.1046 9.89543 56 11 56H50C51.1046 56 52 55.1046 52 54V25" stroke="#3374F5" stroke-width="4"/>
<path d="M33.0011 19.4989C35.9091 19.3896 38.7849 18.2249 41.0049 16.0049C43.2249 13.7849 44.3896 10.9091 44.4989 8.0011L44.5 8L44.5011 8.0011C44.6104 10.9091 45.7751 13.7849 47.9951 16.0049C50.2151 18.2249 53.0908 19.3894 55.9988 19.4988L56 19.5L55.9989 19.5011C53.0909 19.6104 50.2151 20.7751 47.9951 22.9951C45.7751 25.2151 44.6104 28.0909 44.5011 30.9989L44.5 31L44.4988 30.9988C44.3894 28.0908 43.2249 25.2151 41.0049 22.9951C38.7849 20.7751 35.9091 19.6104 33.0011 19.5011L33 19.5L33.0011 19.4989Z" fill="#3374F5"/>
<path d="M47 51H14L22.3 38.3333L26.3971 44.5863L34.6071 32L47 51Z" fill="#3374F5"/>
</svg>
