<svg width="64" height="64" viewBox="0 0 64 64" fill="none" xmlns="http://www.w3.org/2000/svg">
<line x1="47.8232" y1="48.1768" x2="15.8232" y2="16.1768" stroke="#3374F5" stroke-width="0.5"/>
<line x1="32" y1="1.09278e-08" x2="32" y2="64" stroke="#3374F5" stroke-width="0.5"/>
<circle cx="32" cy="32" r="22.75" stroke="#3374F5" stroke-width="0.5"/>
<line x1="8" y1="15.75" x2="56" y2="15.75" stroke="#3374F5" stroke-width="0.5"/>
<line y1="32" x2="64" y2="32" stroke="#3374F5" stroke-width="0.5"/>
<line x1="8" y1="47.75" x2="56" y2="47.75" stroke="#3374F5" stroke-width="0.5"/>
<line x1="15.25" y1="8" x2="15.25" y2="56" stroke="#3374F5" stroke-width="0.5"/>
<line x1="48.25" y1="8" x2="48.25" y2="56" stroke="#3374F5" stroke-width="0.5"/>
<path d="M32 17.7949C33.02 21.0262 34.8098 24.0676 37.3711 26.6289C39.9323 29.1901 42.9739 30.9791 46.2051 31.999C42.9737 33.019 39.9324 34.8098 37.3711 37.3711C34.8098 39.9324 33.019 42.9737 31.999 46.2051C30.9791 42.9739 29.1901 39.9323 26.6289 37.3711C24.0676 34.8098 21.0262 33.02 17.7949 32C21.0262 30.98 24.0676 29.1902 26.6289 26.6289C29.1902 24.0676 30.98 21.0262 32 17.7949Z" fill="#192436" stroke="#3374F5" stroke-width="2"/>
</svg>
