<svg width="54" height="22" viewBox="0 0 54 22" fill="none" xmlns="http://www.w3.org/2000/svg">
<path d="M22.9456 14.195C22.9456 16.4969 21.1448 18.1932 18.9348 18.1932C16.7248 18.1932 14.924 16.4969 14.924 14.195C14.924 11.8768 16.7248 10.1968 18.9348 10.1968C21.1448 10.1968 22.9456 11.8768 22.9456 14.195ZM21.1899 14.195C21.1899 12.7565 20.1462 11.7723 18.9348 11.7723C17.7235 11.7723 16.6797 12.7565 16.6797 14.195C16.6797 15.6191 17.7235 16.6177 18.9348 16.6177C20.1462 16.6177 21.1899 15.6173 21.1899 14.195ZM31.5982 14.195C31.5982 16.4969 29.7974 18.1932 27.5874 18.1932C25.3773 18.1932 23.5765 16.4969 23.5765 14.195C23.5765 11.8786 25.3773 10.1968 27.5874 10.1968C29.7974 10.1968 31.5982 11.8768 31.5982 14.195ZM29.8424 14.195C29.8424 12.7565 28.7987 11.7723 27.5874 11.7723C26.376 11.7723 25.3323 12.7565 25.3323 14.195C25.3323 15.6191 26.376 16.6177 27.5874 16.6177C28.7987 16.6177 29.8424 15.6173 29.8424 14.195ZM39.8902 10.4384V17.6164C39.8902 20.569 38.1489 21.775 36.0903 21.775C34.1525 21.775 32.9862 20.4789 32.5463 19.419L34.075 18.7827C34.3472 19.4334 35.0141 20.2013 36.0885 20.2013C37.4062 20.2013 38.2228 19.3883 38.2228 17.8579V17.2829H38.1615C37.7685 17.7678 37.0114 18.1914 36.056 18.1914C34.0569 18.1914 32.2255 16.4501 32.2255 14.2094C32.2255 11.9526 34.0569 10.1968 36.056 10.1968C37.0096 10.1968 37.7667 10.6204 38.1615 11.0909H38.2228V10.4402H39.8902V10.4384ZM38.3472 14.2094C38.3472 12.8016 37.408 11.7723 36.2129 11.7723C35.0015 11.7723 33.9866 12.8016 33.9866 14.2094C33.9866 15.6028 35.0015 16.6177 36.2129 16.6177C37.408 16.6177 38.3472 15.6028 38.3472 14.2094ZM42.6392 6.23106V17.948H40.9267V6.23106H42.6392ZM49.3125 15.5109L50.6752 16.4194C50.2354 17.0702 49.1755 18.1914 47.344 18.1914C45.0727 18.1914 43.3764 16.4357 43.3764 14.1932C43.3764 11.8156 45.0871 10.195 47.1475 10.195C49.2223 10.195 50.2372 11.8462 50.5689 12.7385L50.7509 13.1928L45.4062 15.4064C45.8154 16.2085 46.4517 16.6177 47.344 16.6177C48.2381 16.6177 48.8582 16.1779 49.3125 15.5109ZM45.1178 14.0724L48.6906 12.5889C48.4941 12.0896 47.9028 11.7416 47.207 11.7416C46.3147 11.7416 45.0727 12.5294 45.1178 14.0724ZM8.44179 13.1549V11.4586H14.1579C14.2138 11.7543 14.2426 12.104 14.2426 12.4825C14.2426 13.7552 13.8947 15.3289 12.7735 16.4501C11.6829 17.5857 10.2895 18.1914 8.4436 18.1914C5.02224 18.1914 2.14526 15.4046 2.14526 11.9832C2.14526 8.56184 5.02224 5.775 8.4436 5.775C10.3363 5.775 11.6847 6.51767 12.6978 7.48568L11.5008 8.68261C10.7744 8.00123 9.79015 7.47126 8.44179 7.47126C5.94337 7.47126 3.98934 9.48478 3.98934 11.9832C3.98934 14.4816 5.94337 16.4951 8.44179 16.4951C10.0623 16.4951 10.9853 15.8444 11.5765 15.2531C12.056 14.7736 12.3715 14.0887 12.4959 13.1531L8.44179 13.1549Z" fill="white"/>
</svg>
