<svg width="24" height="24" viewBox="0 0 24 24" fill="none" xmlns="http://www.w3.org/2000/svg">
<path d="M7.49107 14.0015C3.00087 11.6015 3.00087 10.4015 3.00087 10.0015C3.00087 9.60147 3.00087 8.40146 7.49107 6.00146M7.49107 14.0015C3.00087 16.4015 3 17.2015 3 18.0015M7.49107 14.0015C11.9804 11.602 11.9804 10.402 11.9804 10.0017C11.9804 9.60146 11.9804 8.40099 7.49107 6.00146M7.49107 6.00146C11.9813 3.60146 11.9813 2.80146 11.9813 2.00146M7.49107 6.00146L5.30781 4.74576C3.00057 3.28295 3 2.64221 3 2.00146" stroke="white" stroke-width="1.5" stroke-linecap="round" stroke-linejoin="round"/>
<path d="M14.4118 12.0005V13.9795M10.9248 15.5009H12.9768M18.9478 15.5009H20.9998M18.9478 18.4741H20.9998M10.9248 18.4741H12.9768M14.4118 20.0197V21.9988M17.4373 20.0197V21.9988M17.4265 12.0005V13.9795M13.9768 19.9681H17.9478C18.5001 19.9681 18.9478 19.5204 18.9478 18.9681V14.9795C18.9478 14.4272 18.5001 13.9795 17.9478 13.9795H13.9768C13.4245 13.9795 12.9768 14.4272 12.9768 14.9795V18.9681C12.9768 19.5204 13.4245 19.9681 13.9768 19.9681Z" stroke="white" stroke-width="1.5" stroke-linecap="round"/>
</svg>
