<svg width="24" height="24" viewBox="0 0 24 24" fill="none" xmlns="http://www.w3.org/2000/svg">
<path d="M10.3274 7.2749L10.3274 22.1549" stroke="white" stroke-width="1.5" stroke-linecap="round"/>
<path d="M7 12L7 18" stroke="white" stroke-width="1.5" stroke-linecap="round"/>
<path d="M16.7273 12.96L16.7273 17.76" stroke="white" stroke-width="1.5" stroke-linecap="round"/>
<path d="M3.92749 13.9951L3.92749 15.4351" stroke="white" stroke-width="1.5" stroke-linecap="round"/>
<path d="M13.5273 10.3198L13.5273 20.1598" stroke="white" stroke-width="1.5" stroke-linecap="round"/>
<path d="M12.3754 7.31209C13.4659 7.27109 14.5443 6.83435 15.3768 6.00184C16.2093 5.16933 16.6461 4.09092 16.6871 3.00041L16.6875 3L16.6879 3.00041C16.7289 4.09092 17.1657 5.16933 17.9982 6.00184C18.8307 6.83434 19.909 7.27104 20.9995 7.31205L21 7.3125L20.9996 7.31291C19.9091 7.35391 18.8307 7.79065 17.9982 8.62316C17.1657 9.45567 16.7289 10.5341 16.6879 11.6246L16.6875 11.625L16.687 11.6245C16.646 10.534 16.2093 9.45566 15.3768 8.62316C14.5443 7.79065 13.4659 7.35391 12.3754 7.31291L12.375 7.3125L12.3754 7.31209Z" fill="white"/>
</svg>
