<svg width="24" height="24" viewBox="0 0 24 24" fill="none" xmlns="http://www.w3.org/2000/svg">
<path d="M18.1649 15.3477L18.6279 14.1904C18.6279 14.1904 19.2789 14.8143 20.0122 15.518C20.8638 16.3353 21.2896 16.7439 21.6142 16.5583C21.9388 16.3727 21.8076 15.8192 21.545 14.7123C21.1458 13.0293 20.535 11.3999 19.7246 9.86362C18.7709 8.05829 17.2258 6.6355 15.3481 5.83357L14.1904 5.37062C14.1904 5.37062 14.7811 4.75407 15.4628 4.04365C16.3007 3.17043 16.7197 2.73383 16.5354 2.40963C16.3511 2.08543 15.7797 2.21785 14.6369 2.48267C12.6305 2.94764 10.3703 3.7496 8.57131 5.13258C7.35639 6.0353 6.40989 7.2515 5.8332 8.65092L5.37033 9.80826C5.37033 9.80826 4.7549 9.21881 4.04532 8.53809C3.17089 7.69923 2.73367 7.27981 2.40951 7.46411C2.08534 7.64842 2.21794 8.22044 2.48314 9.36447C2.95656 11.4067 3.77912 13.7114 5.20822 15.5251C6.10128 16.6949 7.28942 17.6062 8.6508 18.1654L9.80899 18.6288C9.80899 18.6288 9.18483 19.2798 8.48103 20.013C7.66458 20.8636 7.25636 21.2889 7.44193 21.6135C7.6275 21.9382 8.18044 21.8071 9.28631 21.5449C10.9527 21.1499 12.5669 20.5479 14.0906 19.7505C15.9161 18.797 17.3556 17.2415 18.1649 15.3477Z" stroke="white" stroke-width="1.5" stroke-linejoin="round"/>
<path d="M12 15C13.6569 15 15 13.6569 15 12C15 10.3431 13.6569 9 12 9C10.3431 9 9 10.3431 9 12C9 13.6569 10.3431 15 12 15Z" stroke="white" stroke-width="1.5"/>
</svg>
